<?xml version="1.0" encoding="UTF-8" standalone="no"?>
<!-- Created with Inkscape (http://www.inkscape.org/) -->

<svg
   xmlns:dc="http://purl.org/dc/elements/1.1/"
   xmlns:cc="http://creativecommons.org/ns#"
   xmlns:rdf="http://www.w3.org/1999/02/22-rdf-syntax-ns#"
   xmlns:svg="http://www.w3.org/2000/svg"
   xmlns="http://www.w3.org/2000/svg"
   xmlns:xlink="http://www.w3.org/1999/xlink"
   xmlns:sodipodi="http://sodipodi.sourceforge.net/DTD/sodipodi-0.dtd"
   xmlns:inkscape="http://www.inkscape.org/namespaces/inkscape"
   width="290"
   height="85"
   id="svg3386"
   version="1.1"
   inkscape:version="0.48.4 r9939"
   sodipodi:docname="New document 5">
  <defs
     id="defs3388">
    <clipPath
       id="clipPath100"
       clipPathUnits="userSpaceOnUse">
      <path
         inkscape:connector-curvature="0"
         id="path98"
         d="m 1010.22,4446.34 v -686.8 c 0,-59.31 48.24,-107.55 107.55,-107.55 h 579.24 c 59.31,0 107.57,48.24 107.57,107.55 v 579.25 c 0,59.3 -48.26,107.55 -107.57,107.55 z m 686.79,-841.92 h -579.24 c -85.54,0 -155.125,69.59 -155.125,155.12 v 734.37 h 734.365 c 85.54,0 155.13,-69.59 155.13,-155.12 v -579.25 c 0,-85.53 -69.59,-155.12 -155.13,-155.12 z" />
    </clipPath>
    <linearGradient
       inkscape:collect="always"
       xlink:href="#linearGradient108"
       id="linearGradient3241"
       gradientUnits="userSpaceOnUse"
       gradientTransform="matrix(843.998,-843.998,-843.998,-843.998,962.646,4493.91)"
       spreadMethod="pad"
       x1="0"
       y1="0"
       x2="1"
       y2="0" />
    <linearGradient
       id="linearGradient108"
       spreadMethod="pad"
       gradientTransform="matrix(843.998,-843.998,-843.998,-843.998,962.646,4493.91)"
       gradientUnits="userSpaceOnUse"
       y2="0"
       x2="1"
       y1="0"
       x1="0">
      <stop
         id="stop102"
         offset="0"
         style="stop-opacity:1;stop-color:#07974d" />
      <stop
         id="stop104"
         offset="0.5"
         style="stop-opacity:1;stop-color:#2a3a79" />
      <stop
         id="stop106"
         offset="1"
         style="stop-opacity:1;stop-color:#5c2591" />
    </linearGradient>
    <clipPath
       id="clipPath118"
       clipPathUnits="userSpaceOnUse">
      <path
         inkscape:connector-curvature="0"
         id="path116"
         d="m 1115.45,4341.11 v -509.17 c 0,-41.19 33.52,-74.72 74.73,-74.72 h 434.43 c 41.2,0 74.72,33.53 74.72,74.72 v 434.44 c 0,41.2 -33.52,74.73 -74.72,74.73 z m 509.16,-631.45 h -434.43 c -67.44,0 -122.29,54.86 -122.29,122.28 v 556.73 h 556.72 c 67.43,0 122.29,-54.86 122.29,-122.29 v -434.44 c 0,-67.42 -54.86,-122.28 -122.29,-122.28 z" />
    </clipPath>
    <linearGradient
       inkscape:collect="always"
       xlink:href="#linearGradient124"
       id="linearGradient3243"
       gradientUnits="userSpaceOnUse"
       gradientTransform="matrix(643.149,-643.149,-643.149,-643.149,1067.89,4388.66)"
       spreadMethod="pad"
       x1="0"
       y1="0"
       x2="1"
       y2="0" />
    <linearGradient
       id="linearGradient124"
       spreadMethod="pad"
       gradientTransform="matrix(643.149,-643.149,-643.149,-643.149,1067.89,4388.66)"
       gradientUnits="userSpaceOnUse"
       y2="0"
       x2="1"
       y1="0"
       x1="0">
      <stop
         id="stop120"
         offset="0"
         style="stop-opacity:1;stop-color:#f57815" />
      <stop
         id="stop122"
         offset="1"
         style="stop-opacity:1;stop-color:#bf1b2c" />
    </linearGradient>
  </defs>
  <sodipodi:namedview
     id="base"
     pagecolor="#ffffff"
     bordercolor="#666666"
     borderopacity="1.0"
     inkscape:pageopacity="0.0"
     inkscape:pageshadow="2"
     inkscape:zoom="0.75"
     inkscape:cx="354.32859"
     inkscape:cy="42.299335"
     inkscape:document-units="px"
     inkscape:current-layer="layer1"
     showgrid="false"
     inkscape:window-width="1920"
     inkscape:window-height="1056"
     inkscape:window-x="1920"
     inkscape:window-y="24"
     inkscape:window-maximized="1"
     fit-margin-top="2"
     fit-margin-left="2"
     fit-margin-right="2"
     fit-margin-bottom="2" />
  <metadata
     id="metadata3391">
    <rdf:RDF>
      <cc:Work
         rdf:about="">
        <dc:format>image/svg+xml</dc:format>
        <dc:type
           rdf:resource="http://purl.org/dc/dcmitype/StillImage" />
        <dc:title></dc:title>
      </cc:Work>
    </rdf:RDF>
  </metadata>
  <g
     id="layer1"
     inkscape:label="Layer 1"
     inkscape:groupmode="layer"
     transform="translate(-5.6714139,-2.299333)">
    <g
       id="g3281"
       transform="matrix(0.66272807,0,0,0.66272807,-72.058165,-39.352682)">
      <path
         inkscape:connector-curvature="0"
         d="m 386.50799,171.89468 -1.79467,-1.264 c -2.96666,-2.09066 -13.80933,-11.97466 -13.80933,-17.71466 V 83.198685 h 7.92933 v 69.717335 c 0,2.072 3.696,6.29333 7.54534,9.40133 4.31866,-3.60133 6.91466,-7.82133 7.324,-9.52267 V 83.198685 h 8.02 v 69.717335 c 0,4.39466 -8.43467,13.77866 -13.46267,17.63466 l -1.752,1.344"
         style="fill:#231f20;fill-opacity:1;fill-rule:nonzero;stroke:none"
         id="path72" />
      <path
         inkscape:connector-curvature="0"
         d="m 288.21999,98.800018 c 0,-2.648 -0.924,-4.894667 -2.76933,-6.74 -1.84533,-1.846667 -4.092,-2.769334 -6.74,-2.769334 h -9.02933 v 52.602666 h 9.02933 c 2.648,0 4.89467,-0.92133 6.74,-2.768 1.84533,-1.84533 2.76933,-4.09333 2.76933,-6.74133 z m 4.21334,33.584002 c 0,1.92533 -0.36267,3.71333 -1.084,5.356 -0.72267,1.64666 -1.70534,3.092 -2.948,4.33333 -1.24667,1.24533 -2.69067,2.22667 -4.33467,2.95067 -1.64533,0.72133 -3.43067,1.08266 -5.356,1.08266 h -9.02933 v 23.232 h -4.212 V 85.076018 h 13.24133 c 1.92533,0 3.71067,0.362667 5.356,1.085333 1.644,0.721333 3.088,1.705333 4.33467,2.948 1.24266,1.245333 2.22533,2.689333 2.948,4.333333 0.72133,1.646667 1.084,3.432 1.084,5.357334 v 33.584002"
         style="fill:#231f20;fill-opacity:1;fill-rule:nonzero;stroke:none"
         id="path74" />
      <path
         inkscape:connector-curvature="0"
         d="m 288.21999,98.800018 c 0,-2.648 -0.924,-4.894667 -2.76933,-6.74 -1.84533,-1.846667 -4.092,-2.769334 -6.74,-2.769334 h -9.02933 v 52.602666 h 9.02933 c 2.648,0 4.89467,-0.92133 6.74,-2.768 1.84533,-1.84533 2.76933,-4.09333 2.76933,-6.74133 z m 4.21334,33.584002 c 0,1.92533 -0.36267,3.71333 -1.084,5.356 -0.72267,1.64666 -1.70534,3.092 -2.948,4.33333 -1.24667,1.24533 -2.69067,2.22667 -4.33467,2.95067 -1.64533,0.72133 -3.43067,1.08266 -5.356,1.08266 h -9.02933 v 23.232 h -4.212 V 85.076018 h 13.24133 c 1.92533,0 3.71067,0.362667 5.356,1.085333 1.644,0.721333 3.088,1.705333 4.33467,2.948 1.24266,1.245333 2.22533,2.689333 2.948,4.333333 0.72133,1.646667 1.084,3.432 1.084,5.357334 z"
         style="fill:none;stroke:#231f20;stroke-width:4.11382389;stroke-linecap:butt;stroke-linejoin:miter;stroke-miterlimit:10;stroke-opacity:1;stroke-dasharray:none"
         id="path76" />
      <path
         inkscape:connector-curvature="0"
         d="m 340.93599,98.800018 c 0,-2.648 -0.92267,-4.894667 -2.768,-6.74 -1.84667,-1.846667 -4.092,-2.769334 -6.74133,-2.769334 h -9.028 v 52.602666 h 18.53733 z m 0,70.538662 v -23.232 h -18.53733 v 23.232 h -4.21067 V 85.076018 h 13.23867 c 1.92666,0 3.712,0.362667 5.35866,1.085333 1.64134,0.721333 3.08534,1.705333 4.332,2.948 1.244,1.245333 2.228,2.689333 2.94934,4.333333 0.72266,1.646667 1.08266,3.432 1.08266,5.357334 v 70.538662 h -4.21333"
         style="fill:#231f20;fill-opacity:1;fill-rule:nonzero;stroke:none"
         id="path78" />
      <path
         inkscape:connector-curvature="0"
         d="m 340.93599,98.800018 c 0,-2.648 -0.92267,-4.894667 -2.768,-6.74 -1.84667,-1.846667 -4.092,-2.769334 -6.74133,-2.769334 h -9.028 v 52.602666 h 18.53733 z m 0,70.538662 v -23.232 h -18.53733 v 23.232 h -4.21067 V 85.076018 h 13.23867 c 1.92666,0 3.712,0.362667 5.35866,1.085333 1.64134,0.721333 3.08534,1.705333 4.332,2.948 1.244,1.245333 2.228,2.689333 2.94934,4.333333 0.72266,1.646667 1.08266,3.432 1.08266,5.357334 v 70.538662 z"
         style="fill:none;stroke:#231f20;stroke-width:4.11382389;stroke-linecap:butt;stroke-linejoin:miter;stroke-miterlimit:10;stroke-opacity:1;stroke-dasharray:none"
         id="path80" />
      <path
         inkscape:connector-curvature="0"
         d="m 427.47466,85.076018 h 4.21333 v 84.262662 h -4.21333 V 85.076018"
         style="fill:#231f20;fill-opacity:1;fill-rule:nonzero;stroke:none"
         id="path82" />
      <path
         inkscape:connector-curvature="0"
         d="m 427.47466,85.076018 h 4.21333 v 84.262662 h -4.21333 z"
         style="fill:none;stroke:#231f20;stroke-width:4.11382389;stroke-linecap:butt;stroke-linejoin:miter;stroke-miterlimit:10;stroke-opacity:1;stroke-dasharray:none"
         id="path84" />
      <path
         inkscape:connector-curvature="0"
         d="m 480.19199,103.37335 v -4.573332 c 0,-2.648 -0.924,-4.894667 -2.76934,-6.74 -1.84533,-1.846667 -4.09066,-2.769334 -6.73866,-2.769334 h -9.028 v 66.325336 c 0,2.648 0.92133,4.89466 2.768,6.74 1.844,1.848 4.092,2.76933 6.73866,2.76933 2.648,0 4.896,-0.92133 6.74267,-2.76933 1.84533,-1.84534 2.768,-4.092 2.768,-6.74 v -4.45467 h 4.21333 v 4.45467 c 0,1.92533 -0.36,3.71333 -1.08266,5.356 -0.72134,1.64533 -1.70534,3.08933 -2.94934,4.33466 -1.24533,1.244 -2.69066,2.22667 -4.33333,2.94667 -1.64667,0.724 -3.43067,1.08533 -5.35867,1.08533 -1.924,0 -3.712,-0.36133 -5.35599,-1.08533 -1.644,-0.72 -3.09067,-1.70267 -4.33334,-2.94667 -1.244,-1.24533 -2.224,-2.68933 -2.94666,-4.33466 -0.72267,-1.64267 -1.08534,-3.43067 -1.08534,-5.356 V 85.076018 h 13.24267 c 1.924,0 3.70933,0.362667 5.35466,1.085333 1.64534,0.721333 3.08934,1.705333 4.33334,2.948 1.24533,1.245333 2.228,2.689333 2.94933,4.333333 0.72267,1.646667 1.084,3.432 1.084,5.357334 v 4.573332 h -4.21333"
         style="fill:#231f20;fill-opacity:1;fill-rule:nonzero;stroke:none"
         id="path86" />
      <path
         inkscape:connector-curvature="0"
         d="m 480.19199,103.37335 v -4.573332 c 0,-2.648 -0.924,-4.894667 -2.76934,-6.74 -1.84533,-1.846667 -4.09066,-2.769334 -6.73866,-2.769334 h -9.028 v 66.325336 c 0,2.648 0.92133,4.89466 2.768,6.74 1.844,1.848 4.092,2.76933 6.73866,2.76933 2.648,0 4.896,-0.92133 6.74267,-2.76933 1.84533,-1.84534 2.768,-4.092 2.768,-6.74 v -4.45467 h 4.21333 v 4.45467 c 0,1.92533 -0.36,3.71333 -1.08266,5.356 -0.72134,1.64533 -1.70534,3.08933 -2.94934,4.33466 -1.24533,1.244 -2.69066,2.22667 -4.33333,2.94667 -1.64667,0.724 -3.43067,1.08533 -5.35867,1.08533 -1.924,0 -3.712,-0.36133 -5.35599,-1.08533 -1.644,-0.72 -3.09067,-1.70267 -4.33334,-2.94667 -1.244,-1.24533 -2.224,-2.68933 -2.94666,-4.33466 -0.72267,-1.64267 -1.08534,-3.43067 -1.08534,-5.356 V 85.076018 h 13.24267 c 1.924,0 3.70933,0.362667 5.35466,1.085333 1.64534,0.721333 3.08934,1.705333 4.33334,2.948 1.24533,1.245333 2.228,2.689333 2.94933,4.333333 0.72267,1.646667 1.084,3.432 1.084,5.357334 v 4.573332 z"
         style="fill:none;stroke:#231f20;stroke-width:4.11382389;stroke-linecap:butt;stroke-linejoin:miter;stroke-miterlimit:10;stroke-opacity:1;stroke-dasharray:none"
         id="path88" />
      <path
         inkscape:connector-curvature="0"
         d="m 534.06532,103.17735 h 4.248 v -4.613332 c 0,-1.942667 -0.36533,-3.741334 -1.092,-5.4 -0.728,-1.658667 -1.72,-3.114667 -2.972,-4.370667 -1.256,-1.252 -2.71333,-2.244 -4.37067,-2.973333 -1.66,-0.726667 -3.46,-1.092 -5.40266,-1.092 -0.0813,0 -0.15867,0.01067 -0.24,0.012 -0.0853,-0.0013 -0.16267,-0.012 -0.244,-0.012 h -13.352 v 13.836 4.897332 3.59867 c 0,2.912 0.77066,5.504 2.308,7.76666 l 19.54,26.09467 c 1.04933,1.7 1.57733,3.48 1.57733,5.34133 v 9.588 c 0,2.67067 -0.93067,4.936 -2.79067,6.79734 -1.86133,1.86133 -4.128,2.792 -6.79866,2.792 -2.66934,0 -4.93467,-0.93067 -6.796,-2.792 -1.86134,-1.86134 -2.78934,-4.12667 -2.78934,-6.79734 v -4.49066 h -4.25066 v 4.49066 c 0,1.94134 0.36666,3.744 1.09333,5.40134 0.72933,1.66 1.71867,3.116 2.97333,4.368 1.25467,1.25733 2.71067,2.24666 4.36934,2.97466 1.65733,0.728 3.46,1.09334 5.4,1.09334 1.94266,0 3.74266,-0.36534 5.40266,-1.09334 1.65734,-0.728 3.11467,-1.71733 4.37067,-2.97466 1.252,-1.252 2.244,-2.708 2.972,-4.368 0.72667,-1.65734 1.092,-3.46 1.092,-5.40134 v -9.588 c 0,-2.74933 -0.76933,-5.3 -2.30533,-7.64666 l -19.54134,-26.216 c -1.05066,-1.69734 -1.576,-3.47734 -1.576,-5.34 v -3.29334 -5.202662 c 0,0.09733 0.0267,-9.589334 0.0267,-9.589334 l 9.31867,0.01333 c 2.56266,0.05467 4.748,0.976 6.55333,2.78 1.86,1.862666 2.79067,4.126666 2.79067,6.796 v 4.613336 h 0.48533"
         style="fill:#231f20;fill-opacity:1;fill-rule:nonzero;stroke:none"
         id="path90" />
      <path
         inkscape:connector-curvature="0"
         d="m 534.06532,103.17735 h 4.248 v -4.613332 c 0,-1.942667 -0.36533,-3.741334 -1.092,-5.4 -0.728,-1.658667 -1.72,-3.114667 -2.972,-4.370667 -1.256,-1.252 -2.71333,-2.244 -4.37067,-2.973333 -1.66,-0.726667 -3.46,-1.092 -5.40266,-1.092 -0.0813,0 -0.15867,0.01067 -0.24,0.012 -0.0853,-0.0013 -0.16267,-0.012 -0.244,-0.012 h -13.352 v 13.836 4.897332 3.59867 c 0,2.912 0.77066,5.504 2.308,7.76666 l 19.54,26.09467 c 1.04933,1.7 1.57733,3.48 1.57733,5.34133 v 9.588 c 0,2.67067 -0.93067,4.936 -2.79067,6.79734 -1.86133,1.86133 -4.128,2.792 -6.79866,2.792 -2.66934,0 -4.93467,-0.93067 -6.796,-2.792 -1.86134,-1.86134 -2.78934,-4.12667 -2.78934,-6.79734 v -4.49066 h -4.25066 v 4.49066 c 0,1.94134 0.36666,3.744 1.09333,5.40134 0.72933,1.66 1.71867,3.116 2.97333,4.368 1.25467,1.25733 2.71067,2.24666 4.36934,2.97466 1.65733,0.728 3.46,1.09334 5.4,1.09334 1.94266,0 3.74266,-0.36534 5.40266,-1.09334 1.65734,-0.728 3.11467,-1.71733 4.37067,-2.97466 1.252,-1.252 2.244,-2.708 2.972,-4.368 0.72667,-1.65734 1.092,-3.46 1.092,-5.40134 v -9.588 c 0,-2.74933 -0.76933,-5.3 -2.30533,-7.64666 l -19.54134,-26.216 c -1.05066,-1.69734 -1.576,-3.47734 -1.576,-5.34 v -3.29334 -5.202662 c 0,0.09733 0.0267,-9.589334 0.0267,-9.589334 l 9.31867,0.01333 c 2.56266,0.05467 4.748,0.976 6.55333,2.78 1.86,1.862666 2.79067,4.126666 2.79067,6.796 v 4.613336 z"
         style="fill:none;stroke:#231f20;stroke-width:4.11382389;stroke-linecap:butt;stroke-linejoin:miter;stroke-miterlimit:10;stroke-opacity:1;stroke-dasharray:none"
         id="path92" />
      <g
         transform="matrix(0.13333333,0,0,-0.13333333,0,666.66667)"
         id="g94">
        <g
           id="g96"
           clip-path="url(#clipPath100)">
          <path
             inkscape:connector-curvature="0"
             d="m 1010.22,4446.34 v -686.8 c 0,-59.31 48.24,-107.55 107.55,-107.55 h 579.24 c 59.31,0 107.57,48.24 107.57,107.55 v 579.25 c 0,59.3 -48.26,107.55 -107.57,107.55 z m 686.79,-841.92 h -579.24 c -85.54,0 -155.125,69.59 -155.125,155.12 v 734.37 h 734.365 c 85.54,0 155.13,-69.59 155.13,-155.12 v -579.25 c 0,-85.53 -69.59,-155.12 -155.13,-155.12"
             style="fill:url(#linearGradient3241);fill-opacity:1;fill-rule:nonzero;stroke:none"
             id="path110" />
        </g>
      </g>
      <g
         transform="matrix(0.13333333,0,0,-0.13333333,0,666.66667)"
         id="g112">
        <g
           id="g114"
           clip-path="url(#clipPath118)">
          <path
             inkscape:connector-curvature="0"
             d="m 1115.45,4341.11 v -509.17 c 0,-41.19 33.52,-74.72 74.73,-74.72 h 434.43 c 41.2,0 74.72,33.53 74.72,74.72 v 434.44 c 0,41.2 -33.52,74.73 -74.72,74.73 z m 509.16,-631.45 h -434.43 c -67.44,0 -122.29,54.86 -122.29,122.28 v 556.73 h 556.72 c 67.43,0 122.29,-54.86 122.29,-122.29 v -434.44 c 0,-67.42 -54.86,-122.28 -122.29,-122.28"
             style="fill:url(#linearGradient3243);fill-opacity:1;fill-rule:nonzero;stroke:none"
             id="path126" />
        </g>
      </g>
      <path
         inkscape:connector-curvature="0"
         d="m 163.46133,102.58668 v 43.016 c 0,2.96 2.40667,5.36667 5.36667,5.36667 h 37.64933 c 2.95866,0 5.36666,-2.40667 5.36666,-5.36667 v -37.64933 c 0,-2.95867 -2.408,-5.36667 -5.36666,-5.36667 z m 43.016,54.724 H 168.828 c -6.456,0 -11.70934,-5.25066 -11.70934,-11.708 V 96.245351 h 49.35867 c 6.456,0 11.708,5.251999 11.708,11.707999 v 37.64933 c 0,6.45734 -5.252,11.708 -11.708,11.708"
         style="fill:#fab60a;fill-opacity:1;fill-rule:nonzero;stroke:none"
         id="path128" />
    </g>
  </g>
</svg>
