<?xml version="1.0" encoding="UTF-8" standalone="no"?>
<!-- Created with Inkscape (http://www.inkscape.org/) -->

<svg
   xmlns:dc="http://purl.org/dc/elements/1.1/"
   xmlns:cc="http://creativecommons.org/ns#"
   xmlns:rdf="http://www.w3.org/1999/02/22-rdf-syntax-ns#"
   xmlns:svg="http://www.w3.org/2000/svg"
   xmlns="http://www.w3.org/2000/svg"
   xmlns:xlink="http://www.w3.org/1999/xlink"
   xmlns:sodipodi="http://sodipodi.sourceforge.net/DTD/sodipodi-0.dtd"
   xmlns:inkscape="http://www.inkscape.org/namespaces/inkscape"
   width="179"
   height="263.93839"
   id="svg3562"
   version="1.1"
   inkscape:version="0.48.4 r9939"
   sodipodi:docname="New document 10">
  <defs
     id="defs3564">
    <clipPath
       id="clipPath20"
       clipPathUnits="userSpaceOnUse">
      <path
         inkscape:connector-curvature="0"
         id="path18"
         d="m 1922.03,2359.99 v -999.44 c 0,-86.3 70.21,-156.52 156.51,-156.52 h 842.92 c 86.3,0 156.52,70.22 156.52,156.52 v 842.92 c 0,86.31 -70.22,156.52 -156.52,156.52 z m 999.43,-1225.18 h -842.92 c -124.48,0 -225.74,101.26 -225.74,225.74 v 1068.66 h 1068.66 c 124.47,0 225.74,-101.27 225.74,-225.74 v -842.92 c 0,-124.48 -101.27,-225.74 -225.74,-225.74 z" />
    </clipPath>
    <linearGradient
       inkscape:collect="always"
       xlink:href="#linearGradient28"
       id="linearGradient3237"
       gradientUnits="userSpaceOnUse"
       gradientTransform="matrix(1228.2,-1228.2,-1228.2,-1228.2,1852.81,2429.2)"
       spreadMethod="pad"
       x1="0"
       y1="0"
       x2="1"
       y2="0" />
    <linearGradient
       id="linearGradient28"
       spreadMethod="pad"
       gradientTransform="matrix(1228.2,-1228.2,-1228.2,-1228.2,1852.81,2429.2)"
       gradientUnits="userSpaceOnUse"
       y2="0"
       x2="1"
       y1="0"
       x1="0">
      <stop
         id="stop22"
         offset="0"
         style="stop-opacity:1;stop-color:#07974d" />
      <stop
         id="stop24"
         offset="0.5"
         style="stop-opacity:1;stop-color:#2a3a79" />
      <stop
         id="stop26"
         offset="1"
         style="stop-opacity:1;stop-color:#5c2591" />
    </linearGradient>
    <clipPath
       id="clipPath38"
       clipPathUnits="userSpaceOnUse">
      <path
         inkscape:connector-curvature="0"
         id="path36"
         d="m 2075.17,2206.85 v -740.93 c 0,-59.96 48.78,-108.74 108.74,-108.74 h 632.18 c 59.96,0 108.74,48.78 108.74,108.74 v 632.19 c 0,59.96 -48.78,108.74 -108.74,108.74 z m 740.92,-918.89 h -632.18 c -98.13,0 -177.96,79.82 -177.96,177.96 v 810.14 h 810.14 c 98.13,0 177.96,-79.83 177.96,-177.95 v -632.19 c 0,-98.14 -79.83,-177.96 -177.96,-177.96 z" />
    </clipPath>
    <linearGradient
       inkscape:collect="always"
       xlink:href="#linearGradient44"
       id="linearGradient3239"
       gradientUnits="userSpaceOnUse"
       gradientTransform="matrix(935.922,-935.922,-935.922,-935.922,2005.95,2276.06)"
       spreadMethod="pad"
       x1="0"
       y1="0"
       x2="1"
       y2="0" />
    <linearGradient
       id="linearGradient44"
       spreadMethod="pad"
       gradientTransform="matrix(935.922,-935.922,-935.922,-935.922,2005.95,2276.06)"
       gradientUnits="userSpaceOnUse"
       y2="0"
       x2="1"
       y1="0"
       x1="0">
      <stop
         id="stop40"
         offset="0"
         style="stop-opacity:1;stop-color:#f57815" />
      <stop
         id="stop42"
         offset="1"
         style="stop-opacity:1;stop-color:#bf1b2c" />
    </linearGradient>
  </defs>
  <sodipodi:namedview
     id="base"
     pagecolor="#ffffff"
     bordercolor="#666666"
     borderopacity="1.0"
     inkscape:pageopacity="0.0"
     inkscape:pageshadow="2"
     inkscape:zoom="1.979899"
     inkscape:cx="86.939188"
     inkscape:cy="84.862685"
     inkscape:document-units="px"
     inkscape:current-layer="layer1"
     showgrid="false"
     fit-margin-top="3"
     fit-margin-left="3"
     fit-margin-right="3"
     fit-margin-bottom="3"
     inkscape:window-width="1920"
     inkscape:window-height="1056"
     inkscape:window-x="1920"
     inkscape:window-y="24"
     inkscape:window-maximized="1" />
  <metadata
     id="metadata3567">
    <rdf:RDF>
      <cc:Work
         rdf:about="">
        <dc:format>image/svg+xml</dc:format>
        <dc:type
           rdf:resource="http://purl.org/dc/dcmitype/StillImage" />
        <dc:title></dc:title>
      </cc:Work>
    </rdf:RDF>
  </metadata>
  <g
     inkscape:label="Layer 1"
     inkscape:groupmode="layer"
     id="layer1"
     transform="translate(-270.49918,-188.96442)">
    <g
       transform="translate(26.686675,-150.80759)"
       id="g3301">
      <g
         transform="matrix(0.13333333,0,0,-0.13333333,0,666.66667)"
         id="g14">
        <g
           id="g16"
           clip-path="url(#clipPath20)">
          <path
             inkscape:connector-curvature="0"
             d="m 1922.03,2359.99 v -999.44 c 0,-86.3 70.21,-156.52 156.51,-156.52 h 842.92 c 86.3,0 156.52,70.22 156.52,156.52 v 842.92 c 0,86.31 -70.22,156.52 -156.52,156.52 z m 999.43,-1225.18 h -842.92 c -124.48,0 -225.74,101.26 -225.74,225.74 v 1068.66 h 1068.66 c 124.47,0 225.74,-101.27 225.74,-225.74 v -842.92 c 0,-124.48 -101.27,-225.74 -225.74,-225.74"
             style="fill:url(#linearGradient3237);fill-opacity:1;fill-rule:nonzero;stroke:none"
             id="path30" />
        </g>
      </g>
      <g
         transform="matrix(0.13333333,0,0,-0.13333333,0,666.66667)"
         id="g32">
        <g
           id="g34"
           clip-path="url(#clipPath38)">
          <path
             inkscape:connector-curvature="0"
             d="m 2075.17,2206.85 v -740.93 c 0,-59.96 48.78,-108.74 108.74,-108.74 h 632.18 c 59.96,0 108.74,48.78 108.74,108.74 v 632.19 c 0,59.96 -48.78,108.74 -108.74,108.74 z m 740.92,-918.89 h -632.18 c -98.13,0 -177.96,79.82 -177.96,177.96 v 810.14 h 810.14 c 98.13,0 177.96,-79.83 177.96,-177.95 v -632.19 c 0,-98.14 -79.83,-177.96 -177.96,-177.96"
             style="fill:url(#linearGradient3239);fill-opacity:1;fill-rule:nonzero;stroke:none"
             id="path46" />
        </g>
      </g>
      <path
         inkscape:connector-curvature="0"
         d="m 298.13066,393.86134 v 62.59867 c 0,4.30533 3.50267,7.808 7.808,7.808 h 54.79066 c 4.304,0 7.80667,-3.50267 7.80667,-7.808 v -54.78933 c 0,-4.30667 -3.50267,-7.80934 -7.80667,-7.80934 z m 62.59866,79.63733 h -54.79066 c -9.39467,0 -17.03733,-7.64266 -17.03733,-17.03866 v -71.82667 h 71.82799 c 9.39334,0 17.036,7.64267 17.036,17.03734 v 54.78933 c 0,9.396 -7.64266,17.03866 -17.036,17.03866"
         style="fill:#fab60a;fill-opacity:1;fill-rule:nonzero;stroke:none"
         id="path48" />
      <path
         inkscape:connector-curvature="0"
         d="m 323.71066,600.7104 -1.12,-0.78799 c -1.85067,-1.3036 -8.61867,-7.47454 -8.61867,-11.05574 v -43.512 h 4.94934 v 43.512 c 0,1.2932 2.308,3.92814 4.70933,5.86774 2.696,-2.248 4.31467,-4.88134 4.57067,-5.94374 v -43.436 h 5.00533 v 43.512 c 0,2.71974 -5.264,8.6 -8.40133,11.0052 l -1.09467,0.83853"
         style="fill:#231f20;fill-opacity:1;fill-rule:nonzero;stroke:none"
         id="path50" />
      <path
         inkscape:connector-curvature="0"
         d="m 262.36533,555.08907 c 0,-1.6516 -0.576,-3.05306 -1.72667,-4.20626 -1.15333,-1.15107 -2.55467,-1.72814 -4.208,-1.72814 h -5.63467 v 32.83174 h 5.63467 c 1.65333,0 3.05467,-0.5744 4.208,-1.7276 1.15067,-1.152 1.72667,-2.55467 1.72667,-4.20667 z m 2.63066,20.96307 c 0,1.20093 -0.22666,2.3156 -0.67733,3.34267 -0.45067,1.02653 -1.064,1.9276 -1.84,2.7036 -0.77867,0.7776 -1.67733,1.39066 -2.704,1.84173 -1.02667,0.45053 -2.14133,0.67707 -3.344,0.67707 h -5.63467 v 14.49893 h -2.62933 v -52.59067 h 8.264 c 1.20267,0 2.31733,0.22507 3.344,0.6756 1.02667,0.45107 1.92533,1.0656 2.704,1.8416 0.776,0.77614 1.38933,1.67867 1.84,2.7052 0.45067,1.02667 0.67733,2.1412 0.67733,3.3412 v 20.96307"
         style="fill:#231f20;fill-opacity:1;fill-rule:nonzero;stroke:none"
         id="path52" />
      <path
         inkscape:connector-curvature="0"
         d="m 262.36533,555.08907 c 0,-1.6516 -0.576,-3.05306 -1.72667,-4.20626 -1.15333,-1.15107 -2.55467,-1.72814 -4.208,-1.72814 h -5.63467 v 32.83174 h 5.63467 c 1.65333,0 3.05467,-0.5744 4.208,-1.7276 1.15067,-1.152 1.72667,-2.55467 1.72667,-4.20667 z m 2.63066,20.96307 c 0,1.20093 -0.22666,2.3156 -0.67733,3.34267 -0.45067,1.02653 -1.064,1.9276 -1.84,2.7036 -0.77867,0.7776 -1.67733,1.39066 -2.704,1.84173 -1.02667,0.45053 -2.14133,0.67707 -3.344,0.67707 h -5.63467 v 14.49893 h -2.62933 v -52.59067 h 8.264 c 1.20267,0 2.31733,0.22507 3.344,0.6756 1.02667,0.45107 1.92533,1.0656 2.704,1.8416 0.776,0.77614 1.38933,1.67867 1.84,2.7052 0.45067,1.02667 0.67733,2.1412 0.67733,3.3412 z"
         style="fill:none;stroke:#231f20;stroke-width:2.72634649;stroke-linecap:butt;stroke-linejoin:miter;stroke-miterlimit:10;stroke-opacity:1;stroke-dasharray:none"
         id="path54" />
      <path
         inkscape:connector-curvature="0"
         d="m 295.26799,555.08907 c 0,-1.6516 -0.57466,-3.05306 -1.728,-4.20626 -1.15066,-1.15107 -2.55333,-1.72814 -4.20666,-1.72814 h -5.63467 v 32.83174 h 11.56933 z m 0,44.02707 v -14.49893 h -11.56933 v 14.49893 h -2.62933 v -52.59067 h 8.264 c 1.20266,0 2.316,0.22507 3.344,0.6756 1.024,0.45107 1.92666,1.0656 2.704,1.8416 0.776,0.77614 1.39066,1.67867 1.84133,2.7052 0.45067,1.02667 0.676,2.1412 0.676,3.3412 v 44.02707 h -2.63067"
         style="fill:#231f20;fill-opacity:1;fill-rule:nonzero;stroke:none"
         id="path56" />
      <path
         inkscape:connector-curvature="0"
         d="m 295.26799,555.08907 c 0,-1.6516 -0.57466,-3.05306 -1.728,-4.20626 -1.15066,-1.15107 -2.55333,-1.72814 -4.20666,-1.72814 h -5.63467 v 32.83174 h 11.56933 z m 0,44.02707 v -14.49893 h -11.56933 v 14.49893 h -2.62933 v -52.59067 h 8.264 c 1.20266,0 2.316,0.22507 3.344,0.6756 1.024,0.45107 1.92666,1.0656 2.704,1.8416 0.776,0.77614 1.39066,1.67867 1.84133,2.7052 0.45067,1.02667 0.676,2.1412 0.676,3.3412 v 44.02707 z"
         style="fill:none;stroke:#231f20;stroke-width:2.72634649;stroke-linecap:butt;stroke-linejoin:miter;stroke-miterlimit:10;stroke-opacity:1;stroke-dasharray:none"
         id="path58" />
      <path
         inkscape:connector-curvature="0"
         d="m 349.28132,546.52547 h 2.62934 v 52.59067 h -2.62934 v -52.59067"
         style="fill:#231f20;fill-opacity:1;fill-rule:nonzero;stroke:none"
         id="path60" />
      <path
         inkscape:connector-curvature="0"
         d="m 349.28132,546.52547 h 2.62934 v 52.59067 h -2.62934 z"
         style="fill:none;stroke:#231f20;stroke-width:2.72634649;stroke-linecap:butt;stroke-linejoin:miter;stroke-miterlimit:10;stroke-opacity:1;stroke-dasharray:none"
         id="path62" />
      <path
         inkscape:connector-curvature="0"
         d="m 382.18266,557.94374 v -2.85467 c 0,-1.6516 -0.57734,-3.05306 -1.728,-4.20626 -1.152,-1.15107 -2.55334,-1.72814 -4.20667,-1.72814 h -5.63467 v 41.39747 c 0,1.652 0.576,3.05467 1.728,4.2052 1.152,1.15467 2.55334,1.72907 4.20667,1.72907 1.652,0 3.05467,-0.5744 4.208,-1.72907 1.15067,-1.15053 1.72667,-2.5532 1.72667,-4.2052 v -2.78133 h 2.62933 v 2.78133 c 0,1.2 -0.224,2.3156 -0.67467,3.34267 -0.45066,1.02653 -1.06533,1.9276 -1.84133,2.7036 -0.77733,0.7776 -1.67867,1.39066 -2.704,1.84013 -1.028,0.45213 -2.14133,0.6776 -3.344,0.6776 -1.2,0 -2.31733,-0.22547 -3.344,-0.6776 -1.02533,-0.44947 -1.928,-1.06253 -2.704,-1.84013 -0.776,-0.776 -1.38933,-1.67707 -1.84,-2.7036 -0.45067,-1.02707 -0.67733,-2.14267 -0.67733,-3.34267 v -44.02667 h 8.26533 c 1.20133,0 2.316,0.22507 3.34267,0.6756 1.02666,0.45107 1.928,1.0656 2.70533,1.8416 0.776,0.77614 1.39067,1.67867 1.84133,2.7052 0.44934,1.02667 0.67467,2.1412 0.67467,3.3412 v 2.85467 h -2.62933"
         style="fill:#231f20;fill-opacity:1;fill-rule:nonzero;stroke:none"
         id="path64" />
      <path
         inkscape:connector-curvature="0"
         d="m 382.18266,557.94374 v -2.85467 c 0,-1.6516 -0.57734,-3.05306 -1.728,-4.20626 -1.152,-1.15107 -2.55334,-1.72814 -4.20667,-1.72814 h -5.63467 v 41.39747 c 0,1.652 0.576,3.05467 1.728,4.2052 1.152,1.15467 2.55334,1.72907 4.20667,1.72907 1.652,0 3.05467,-0.5744 4.208,-1.72907 1.15067,-1.15053 1.72667,-2.5532 1.72667,-4.2052 v -2.78133 h 2.62933 v 2.78133 c 0,1.2 -0.224,2.3156 -0.67467,3.34267 -0.45066,1.02653 -1.06533,1.9276 -1.84133,2.7036 -0.77733,0.7776 -1.67867,1.39066 -2.704,1.84013 -1.028,0.45213 -2.14133,0.6776 -3.344,0.6776 -1.2,0 -2.31733,-0.22547 -3.344,-0.6776 -1.02533,-0.44947 -1.928,-1.06253 -2.704,-1.84013 -0.776,-0.776 -1.38933,-1.67707 -1.84,-2.7036 -0.45067,-1.02707 -0.67733,-2.14267 -0.67733,-3.34267 v -44.02667 h 8.26533 c 1.20133,0 2.316,0.22507 3.34267,0.6756 1.02666,0.45107 1.928,1.0656 2.70533,1.8416 0.776,0.77614 1.39067,1.67867 1.84133,2.7052 0.44934,1.02667 0.67467,2.1412 0.67467,3.3412 v 2.85467 z"
         style="fill:none;stroke:#231f20;stroke-width:2.72634649;stroke-linecap:butt;stroke-linejoin:miter;stroke-miterlimit:10;stroke-opacity:1;stroke-dasharray:none"
         id="path66" />
      <path
         inkscape:connector-curvature="0"
         d="m 415.80666,557.82241 h 2.65333 v -2.87867 c 0,-1.21307 -0.22933,-2.33587 -0.68267,-3.37187 -0.45466,-1.0344 -1.07333,-1.94266 -1.856,-2.72653 -0.78266,-0.78133 -1.69333,-1.4016 -2.72666,-1.85627 -1.03734,-0.45466 -2.16,-0.68226 -3.372,-0.68226 -0.0507,0 -0.1,0.006 -0.15067,0.008 -0.052,-10e-4 -0.10133,-0.008 -0.15067,-0.008 h -8.33333 v 8.63693 3.05627 2.24693 c 0,1.81707 0.47867,3.43427 1.44,4.84627 l 12.19333,16.28706 c 0.65467,1.05987 0.98534,2.17027 0.98534,3.33334 v 5.98373 c 0,1.66667 -0.58134,3.08133 -1.74134,4.2428 -1.16133,1.16253 -2.576,1.74267 -4.24266,1.74267 -1.66667,0 -3.08,-0.58014 -4.24134,-1.74267 -1.164,-1.16147 -1.74266,-2.57613 -1.74266,-4.2428 v -2.80147 h -2.65067 v 2.80147 c 0,1.21307 0.228,2.336 0.68,3.372 0.456,1.03587 1.07333,1.94427 1.85733,2.72653 0.78267,0.7844 1.692,1.40147 2.72667,1.85627 1.03333,0.45467 2.16,0.6828 3.37067,0.6828 1.212,0 2.33466,-0.22813 3.372,-0.6828 1.03333,-0.4548 1.944,-1.07187 2.72666,-1.85627 0.78267,-0.78226 1.40134,-1.69066 1.856,-2.72653 0.45334,-1.036 0.68267,-2.15893 0.68267,-3.372 v -5.98373 c 0,-1.71627 -0.48133,-3.3068 -1.44,-4.7724 l -12.19733,-16.36254 c -0.656,-1.05986 -0.984,-2.16933 -0.984,-3.33173 v -2.05627 -3.24693 c 0,0.0604 0.0173,-5.98493 0.0173,-5.98493 l 5.816,0.008 c 1.6,0.0333 2.964,0.60934 4.09067,1.7344 1.16,1.16147 1.74133,2.576 1.74133,4.24267 v 2.87867 h 0.30267"
         style="fill:#231f20;fill-opacity:1;fill-rule:nonzero;stroke:none"
         id="path68" />
      <path
         inkscape:connector-curvature="0"
         d="m 415.80666,557.82241 h 2.65333 v -2.87867 c 0,-1.21307 -0.22933,-2.33587 -0.68267,-3.37187 -0.45466,-1.0344 -1.07333,-1.94266 -1.856,-2.72653 -0.78266,-0.78133 -1.69333,-1.4016 -2.72666,-1.85627 -1.03734,-0.45466 -2.16,-0.68226 -3.372,-0.68226 -0.0507,0 -0.1,0.006 -0.15067,0.008 -0.052,-10e-4 -0.10133,-0.008 -0.15067,-0.008 h -8.33333 v 8.63693 3.05627 2.24693 c 0,1.81707 0.47867,3.43427 1.44,4.84627 l 12.19333,16.28706 c 0.65467,1.05987 0.98534,2.17027 0.98534,3.33334 v 5.98373 c 0,1.66667 -0.58134,3.08133 -1.74134,4.2428 -1.16133,1.16253 -2.576,1.74267 -4.24266,1.74267 -1.66667,0 -3.08,-0.58014 -4.24134,-1.74267 -1.164,-1.16147 -1.74266,-2.57613 -1.74266,-4.2428 v -2.80147 h -2.65067 v 2.80147 c 0,1.21307 0.228,2.336 0.68,3.372 0.456,1.03587 1.07333,1.94427 1.85733,2.72653 0.78267,0.7844 1.692,1.40147 2.72667,1.85627 1.03333,0.45467 2.16,0.6828 3.37067,0.6828 1.212,0 2.33466,-0.22813 3.372,-0.6828 1.03333,-0.4548 1.944,-1.07187 2.72666,-1.85627 0.78267,-0.78226 1.40134,-1.69066 1.856,-2.72653 0.45334,-1.036 0.68267,-2.15893 0.68267,-3.372 v -5.98373 c 0,-1.71627 -0.48133,-3.3068 -1.44,-4.7724 l -12.19733,-16.36254 c -0.656,-1.05986 -0.984,-2.16933 -0.984,-3.33173 v -2.05627 -3.24693 c 0,0.0604 0.0173,-5.98493 0.0173,-5.98493 l 5.816,0.008 c 1.6,0.0333 2.964,0.60934 4.09067,1.7344 1.16,1.16147 1.74133,2.576 1.74133,4.24267 v 2.87867 z"
         style="fill:none;stroke:#231f20;stroke-width:2.72634649;stroke-linecap:butt;stroke-linejoin:miter;stroke-miterlimit:10;stroke-opacity:1;stroke-dasharray:none"
         id="path70" />
    </g>
  </g>
</svg>
